<?xml version="1.0" encoding="utf-8"?>
<svg version="1.1" xmlns:xlink="http://www.w3.org/1999/xlink" width="24px" height="25px" xmlns="http://www.w3.org/2000/svg">
  <g transform="matrix(1 0 0 1 -492 -396 )">
    <path d="M 22.7778055700834 4.99674479166669  C 23.142898771159 5.15950520833331  23.4263263877835 5.39279513888891  23.6280884199569 5.69661458333331  C 24.0123970526681 6.31510416666669  24.0988664950281 7.01497395833331  23.887496747037 7.79622395833331  L 19.9243139722027 22.5423177083333  C 19.7417673716648 23.2367621527778  19.3742722416348 23.8199869791667  18.8218285821124 24.2919921875  C 18.26938492259 24.7639973958333  17.680912328751 25  17.0564108005953 25  L 3.75452825087865 25  C 3.01473413290955 25  2.30136123343939 24.7097439236111  1.6144095524681 24.1292317708333  C 0.927457871496806 23.5487196180555  0.449474009562267 22.8352864583333  0.180457966664423 21.9889322916667  C -0.0501272129622923 21.2619357638889  -0.0597349287801171 20.5729166666667  0.151634819211062 19.921875  C 0.151634819211062 19.8784722222222  0.166046392937743 19.7319878472222  0.194869540391103 19.482421875  C 0.223692687844407 19.2328559027778  0.24290811948 19.0321180555555  0.252515835297768 18.8802083333333  C 0.262123551115536 18.7934027777778  0.247711977388856 18.6767578125  0.209281114117727 18.5302734375  C 0.170850250846598 18.3837890625  0.156438677119975 18.2779947916667  0.166046392937743 18.212890625  C 0.185261824573279 18.0935329861111  0.223692687844407 17.9796006944445  0.281338982751072 17.87109375  C 0.338985277657793 17.7625868055555  0.418248933154478 17.6350911458333  0.519129949241184 17.4886067708333  C 0.620010965327833 17.3421223958333  0.699274620824518 17.2146267361111  0.75692091573124 17.1061197916667  C 0.977898379540187 16.6937934027778  1.19407198544022 16.1973741319445  1.4054417334314 15.6168619791667  C 1.61681148142252 15.0363498263889  1.76092721868927 14.5399305555555  1.83778894523147 14.1276041666667  C 1.86661209268483 14.0190972222222  1.86901402163926 13.8563368055555  1.84499473209481 13.6393229166667  C 1.82097544255036 13.4223090277778  1.81857351359593 13.2703993055555  1.83778894523147 13.18359375  C 1.86661209268483 13.0642361111111  1.94827767713594 12.9123263888889  2.08278569858487 12.7278645833333  C 2.21729372003379 12.5434027777778  2.29895930448496 12.4186197916667  2.32778245193826 12.353515625  C 2.52954448411167 11.962890625  2.73130651628503 11.4637586805555  2.93306854845844 10.8561197916667  C 3.13483058063179 10.2484809027778  3.25492702835404 9.76019965277777  3.29335789162516 9.39127604166669  C 3.30296560744299 9.29361979166669  3.29095596267074 9.12000868055554  3.25732895730852 8.87044270833331  C 3.2237019519463 8.62087673611109  3.22610388090073 8.46896701388891  3.26453474417186 8.41471354166669  C 3.30296560744299 8.27365451388891  3.40865048143855 8.10818142361109  3.5815893661586 7.91829427083331  C 3.75452825087865 7.72840711805554  3.86021312487421 7.60633680555554  3.89864398814534 7.55208333333331  C 4.08119058868316 7.26996527777777  4.285354549811 6.8115234375  4.5111358715288 6.1767578125  C 4.73691719324666 5.5419921875  4.86902328574116 5.01844618055554  4.90745414901223 4.60611979166669  C 4.91706186483005 4.51931423611109  4.90265029110337 4.38096788194446  4.86421942783224 4.19108072916669  C 4.82578856456112 4.00119357638891  4.81618084874335 3.857421875  4.83539628037888 3.759765625  C 4.85461171201448 3.67296006944446  4.89784643319446 3.57530381944446  4.96510044391895 3.466796875  C 5.03235445464338 3.35828993055554  5.11882389700341 3.23350694444446  5.22450877099903 3.09244791666669  C 5.33019364499459 2.95138888888891  5.4118592294457 2.83745659722223  5.46950552435236 2.75065104166669  C 5.54636725089462 2.62044270833331  5.62563090639131 2.45496961805554  5.70729649084248 2.25423177083331  C 5.78896207529359 2.05349392361109  5.86101994392693 1.86360677083331  5.92347009674251 1.6845703125  C 5.98592024955809 1.50553385416669  6.06278197610035 1.31022135416669  6.15405527636923 1.0986328125  C 6.24532857663816 0.887044270833314  6.33900380586147 0.713433159722229  6.43508096403932 0.577799479166686  C 6.53115812221712 0.442165798611086  6.6584603568027 0.314670138888914  6.81698766779607 0.1953125  C 6.97551497878944 0.0759548611110858  7.14845386350949 0.0135633680555429  7.33580432195616 0.00813802083331439  C 7.52315478040289 0.00271267361108585  7.75133803107518 0.0325520833333144  8.02035407397303 0.09765625  L 8.00594250024634 0.146484375  C 8.37103570132198 0.048828125  8.61603245467538 0  8.74093276030653 0  L 19.7081403663026 0  C 20.4191113368184 0  20.9667511384318 0.303819444444457  21.351059771143 0.911458333333314  C 21.7353684038542 1.51909722222223  21.8218378462142 2.22439236111109  21.6104680982231 3.02734375  L 17.6616968971154 17.7734375  C 17.3158191276753 19.0646701388889  16.9723432871897 19.8974609375  16.6312693756585 20.2718098958333  C 16.2901954641273 20.6461588541667  15.672899722835 20.8333333333333  14.7793821517814 20.8333333333333  L 2.25572458330492 20.8333333333333  C 1.99631625622484 20.8333333333333  1.81376965568702 20.9147135416667  1.70808478169146 21.0774739583333  C 1.60239990769584 21.2510850694445  1.59759604978699 21.484375  1.69367320796478 21.77734375  C 1.9242583875915 22.5368923611111  2.6160139264717 22.9166666666667  3.76893982460528 23  L 17.0708223743219 23  C 17.3494461330376 22.9166666666667  17.6184621759354 22.8325737847222  17.8778705030155 22.6643880208333  C 18.1372788300955 22.4962022569445  18.3054138569067 22.2710503472222  18.3822755834489 21.9889322916667  L 22.70574770145 5.92447916666669  C 22.7730017121745 5.68576388888891  22.797021001719 5.37651909722223  22.7778055700834 4.99674479166669  Z M 8.59681702303984 4.6875  L 8.29417397477978 5.72916666666669  C 8.25574311150865 5.87022569444446  8.26535082732642 5.99229600694446  8.32299712223309 6.09537760416669  C 8.38064341713981 6.19845920138891  8.4767205753176 6.25  8.61122859676652 6.25  L 17.373465422582 6.25  C 17.4983657282132 6.25  17.6208641048899 6.19845920138891  17.7409605526121 6.09537760416669  C 17.8610570003344 5.99229600694446  17.940320655831 5.87022569444446  17.9787515191022 5.72916666666669  L 18.2813945673622 4.6875  C 18.3198254306334 4.54644097222223  18.3102177148156 4.42437065972223  18.2525714199089 4.3212890625  C 18.1949251250023 4.21820746527777  18.0988479668245 4.16666666666669  17.9643399453755 4.16666666666669  L 9.20210311955996 4.16666666666669  C 9.07720281392887 4.16666666666669  8.95470443725214 4.21820746527777  8.8346079895299 4.3212890625  C 8.71451154180766 4.42437065972223  8.63524788631097 4.54644097222223  8.59681702303984 4.6875  Z M 7.40065640372623 8.85416666666669  L 7.09801335546611 9.89583333333331  C 7.05958249219504 10.0368923611111  7.06919020801281 10.1589626736111  7.12683650291947 10.2620442708333  C 7.18448279782613 10.3651258680555  7.28055995600393 10.4166666666667  7.41506797745285 10.4166666666667  L 16.1773048032684 10.4166666666667  C 16.3022051088995 10.4166666666667  16.4247034855763 10.3651258680555  16.5447999332985 10.2620442708333  C 16.6648963810207 10.1589626736111  16.7441600365174 10.0368923611111  16.7825908997885 9.89583333333331  L 17.0852339480486 8.85416666666669  C 17.1236648113197 8.71310763888891  17.114057095502 8.59103732638891  17.0564108005953 8.48795572916669  C 16.9987645056886 8.38487413194446  16.9026873475108 8.33333333333331  16.7681793260619 8.33333333333331  L 8.00594250024634 8.33333333333331  C 7.88104219461519 8.33333333333331  7.75854381793852 8.38487413194446  7.63844737021628 8.48795572916669  C 7.51835092249404 8.59103732638891  7.43908726699735 8.71310763888891  7.40065640372623 8.85416666666669  Z " fill-rule="nonzero" fill="#333333" stroke="none" transform="matrix(1 0 0 1 492 396 )" />
  </g>
</svg>