<?xml version="1.0" encoding="utf-8"?>
<svg version="1.1" xmlns:xlink="http://www.w3.org/1999/xlink" width="27px" height="25px" xmlns="http://www.w3.org/2000/svg">
  <g transform="matrix(1 0 0 1 -492 -455 )">
    <path d="M 17.841796875 20.6868489583333  C 17.947265625 20.5891927083333  18 20.4644097222222  18 20.3125  L 18 17.7083333333333  C 18 17.5564236111111  17.947265625 17.431640625  17.841796875 17.333984375  C 17.736328125 17.236328125  17.6015625 17.1875  17.4375 17.1875  L 15.75 17.1875  L 15.75 8.85416666666669  C 15.75 8.70225694444446  15.697265625 8.57747395833331  15.591796875 8.47981770833331  C 15.486328125 8.38216145833331  15.3515625 8.33333333333331  15.1875 8.33333333333331  L 9.5625 8.33333333333331  C 9.3984375 8.33333333333331  9.263671875 8.38216145833331  9.158203125 8.47981770833331  C 9.052734375 8.57747395833331  9 8.70225694444446  9 8.85416666666669  L 9 11.4583333333333  C 9 11.6102430555555  9.052734375 11.7350260416667  9.158203125 11.8326822916667  C 9.263671875 11.9303385416667  9.3984375 11.9791666666667  9.5625 11.9791666666667  L 11.25 11.9791666666667  L 11.25 17.1875  L 9.5625 17.1875  C 9.3984375 17.1875  9.263671875 17.236328125  9.158203125 17.333984375  C 9.052734375 17.431640625  9 17.5564236111111  9 17.7083333333333  L 9 20.3125  C 9 20.4644097222222  9.052734375 20.5891927083333  9.158203125 20.6868489583333  C 9.263671875 20.7845052083333  9.3984375 20.8333333333333  9.5625 20.8333333333333  L 17.4375 20.8333333333333  C 17.6015625 20.8333333333333  17.736328125 20.7845052083333  17.841796875 20.6868489583333  Z M 15.591796875 6.103515625  C 15.697265625 6.005859375  15.75 5.88107638888891  15.75 5.72916666666669  L 15.75 3.125  C 15.75 2.97309027777777  15.697265625 2.84830729166669  15.591796875 2.75065104166669  C 15.486328125 2.65299479166669  15.3515625 2.60416666666669  15.1875 2.60416666666669  L 11.8125 2.60416666666669  C 11.6484375 2.60416666666669  11.513671875 2.65299479166669  11.408203125 2.75065104166669  C 11.302734375 2.84830729166669  11.25 2.97309027777777  11.25 3.125  L 11.25 5.72916666666669  C 11.25 5.88107638888891  11.302734375 6.005859375  11.408203125 6.103515625  C 11.513671875 6.201171875  11.6484375 6.25  11.8125 6.25  L 15.1875 6.25  C 15.3515625 6.25  15.486328125 6.201171875  15.591796875 6.103515625  Z M 25.189453125 6.2255859375  C 26.396484375 8.14073350694446  27 10.2322048611111  27 12.5  C 27 14.7677951388889  26.396484375 16.8592664930555  25.189453125 18.7744140625  C 23.982421875 20.6895616319445  22.3447265625 22.2059461805555  20.2763671875 23.3235677083333  C 18.2080078125 24.4411892361111  15.94921875 25  13.5 25  C 11.05078125 25  8.7919921875 24.4411892361111  6.7236328125 23.3235677083333  C 4.6552734375 22.2059461805555  3.017578125 20.6895616319445  1.810546875 18.7744140625  C 0.603515625 16.8592664930555  0 14.7677951388889  0 12.5  C 0 10.2322048611111  0.603515625 8.14073350694446  1.810546875 6.2255859375  C 3.017578125 4.31043836805554  4.6552734375 2.79405381944446  6.7236328125 1.67643229166669  C 8.7919921875 0.558810763888914  11.05078125 0  13.5 0  C 15.94921875 0  18.2080078125 0.558810763888914  20.2763671875 1.67643229166669  C 22.3447265625 2.79405381944446  23.982421875 4.31043836805554  25.189453125 6.2255859375  Z " fill-rule="nonzero" fill="#333333" stroke="none" transform="matrix(1 0 0 1 492 455 )" />
  </g>
</svg>