<?xml version="1.0" encoding="utf-8"?>
<svg version="1.1" xmlns:xlink="http://www.w3.org/1999/xlink" width="19px" height="13px" xmlns="http://www.w3.org/2000/svg">
  <g transform="matrix(1 0 0 1 -1091 -233 )">
    <path d="M 18.6474609375 0.428819444444457  C 18.8824869791667 0.714699074074076  19 1.0532407407407  19 1.44444444444446  C 19 1.83564814814815  18.8824869791667 2.17418981481484  18.6474609375 2.46006944444446  L 10.3349609375 12.5711805555555  C 10.0999348958333 12.8570601851852  9.82161458333326 13  9.5 13  C 9.17838541666674 13  8.90006510416674 12.8570601851852  8.6650390625 12.5711805555555  L 0.3525390625 2.46006944444446  C 0.117513020833258 2.17418981481484  0 1.83564814814815  0 1.44444444444446  C 0 1.0532407407407  0.117513020833258 0.714699074074076  0.3525390625 0.428819444444457  C 0.587565104166742 0.142939814814838  0.865885416666742 0  1.1875 0  L 17.8125 0  C 18.1341145833333 0  18.4124348958333 0.142939814814838  18.6474609375 0.428819444444457  Z " fill-rule="nonzero" fill="#333333" stroke="none" transform="matrix(1 0 0 1 1091 233 )" />
  </g>
</svg>